<svg width="28" height="28" viewBox="0 0 28 28" fill="none" xmlns="http://www.w3.org/2000/svg">
<path fill-rule="evenodd" clip-rule="evenodd" d="M26 14.5231C26 13.6545 25.9215 12.8205 25.7773 12.0187H14.2451V16.7553H20.8355C20.5517 18.2861 19.6888 19.5827 18.3922 20.4513V23.5233H22.3501C24.6642 21.3915 26 18.2526 26 14.5231Z" fill="#3E82F1"/>
<path fill-rule="evenodd" clip-rule="evenodd" d="M14.2455 26.4903C17.5516 26.4903 20.3236 25.3932 22.3493 23.5233L18.3914 20.4514C17.2944 21.1862 15.8928 21.6199 14.2443 21.6199C11.0547 21.6199 8.35537 19.4662 7.39214 16.5719H3.30273V19.7442C5.31802 23.7459 9.45818 26.4903 14.2455 26.4903Z" fill="#32A753"/>
<path fill-rule="evenodd" clip-rule="evenodd" d="M7.39293 16.5719C7.14838 15.8371 7.0088 15.0526 7.0088 14.2451C7.0088 13.4376 7.14838 12.6532 7.39293 11.9184V8.74606H3.30238C2.47296 10.3991 2 12.2691 2 14.2451C2 16.2212 2.47296 18.0911 3.30238 19.7442L7.39293 16.5719Z" fill="#F9BB00"/>
<path fill-rule="evenodd" clip-rule="evenodd" d="M14.2455 6.87037C16.0427 6.87037 17.6577 7.48868 18.9267 8.70108L22.4393 5.18846C20.3179 3.21355 17.5458 2 14.2455 2C9.45818 2 5.31802 4.74434 3.30273 8.74607L7.39329 11.9184C8.35652 9.02408 11.0559 6.87037 14.2455 6.87037Z" fill="#E74133"/>
</svg>
