<?xml version="1.0" standalone="no"?>
<!DOCTYPE svg PUBLIC "-//W3C//DTD SVG 20010904//EN"
 "http://www.w3.org/TR/2001/REC-SVG-20010904/DTD/svg10.dtd">
<svg version="1.0" xmlns="http://www.w3.org/2000/svg"
 width="512.000000pt" height="512.000000pt" viewBox="0 0 512.000000 512.000000"
 preserveAspectRatio="xMidYMid meet">

<g transform="translate(0.000000,512.000000) scale(0.100000,-0.100000)"
fill="#000000" stroke="none">
<path d="M2390 4884 c-184 -16 -290 -28 -385 -45 -391 -70 -762 -214 -1065
-414 -986 -650 -1205 -1769 -513 -2625 154 -190 426 -418 641 -536 53 -29 53
-29 47 -68 -3 -21 -21 -77 -39 -125 -97 -250 -244 -473 -462 -702 -98 -102
-107 -123 -56 -136 37 -9 137 18 362 100 460 166 847 346 1104 514 l99 64 106
-11 c607 -61 1185 40 1693 297 309 156 582 370 771 603 437 541 524 1210 233
1805 -330 674 -1088 1153 -1996 1260 -124 15 -454 27 -540 19z"/>
</g>
</svg>
