<svg width="24" height="24" viewBox="0 0 24 24" fill="none" xmlns="http://www.w3.org/2000/svg">
<path d="M14.7167 19.4405C14.6311 19.4418 14.5462 19.4255 14.4672 19.3929C14.3881 19.3602 14.3165 19.3118 14.2567 19.2505L7.18671 12.1805C7.06697 12.0574 7 11.8923 7 11.7205C7 11.5487 7.06697 11.3837 7.18671 11.2605L14.2567 4.19054C14.3787 4.06854 14.5442 4 14.7167 4C14.8892 4 15.0547 4.06854 15.1767 4.19054C15.2987 4.31254 15.3672 4.478 15.3672 4.65054C15.3672 4.82307 15.2987 4.98854 15.1767 5.11053L8.56671 11.7205L15.1767 18.3305C15.2965 18.4537 15.3634 18.6188 15.3634 18.7905C15.3634 18.9623 15.2965 19.1273 15.1767 19.2505C15.117 19.3118 15.0454 19.3602 14.9663 19.3929C14.8872 19.4255 14.8023 19.4418 14.7167 19.4405Z" fill="#4E4E4E"/>
</svg>
