<svg width="24" height="24" viewBox="0 0 24 24" fill="none" xmlns="http://www.w3.org/2000/svg">
<path d="M20.8714 19.0534C22.4689 17.0441 23.337 14.552 23.3337 11.985C23.3303 9.41808 22.4556 6.92834 20.8527 4.92331C19.2499 2.91828 17.0138 1.51674 14.5106 0.948169C12.0074 0.3796 9.38534 0.67766 7.07361 1.79355C4.76188 2.90943 2.89745 4.77704 1.7855 7.09067C0.673552 9.40429 0.379966 12.0269 0.952799 14.5291C1.52563 17.0313 2.93095 19.265 4.9387 20.8644C6.94646 22.4639 9.43773 23.3343 12.0047 23.3333H20.6714C20.9392 23.3391 21.2038 23.2734 21.4378 23.1429C21.6718 23.0124 21.8668 22.8219 22.0026 22.591C22.1384 22.36 22.2103 22.097 22.2106 21.8291C22.211 21.5612 22.1399 21.298 22.0047 21.0667L20.8714 19.0534Z" fill="#6951FF"/>
</svg>
