<svg width="24" height="24" viewBox="0 0 24 24" fill="none" xmlns="http://www.w3.org/2000/svg">
<g clip-path="url(#clip0_15:2035)">
<path d="M14.9334 9.25334C14.9334 8.81131 14.7578 8.38739 14.4452 8.07483C14.1327 7.76227 13.7088 7.58667 13.2667 7.58667H8.62671V10.92H13.2934C13.7308 10.913 14.1479 10.7343 14.4547 10.4225C14.7615 10.1107 14.9334 9.69078 14.9334 9.25334Z" fill="#4E4E4E"/>
<path d="M14.9067 12.92H8.62671V16.2534H14.9067C15.3487 16.2534 15.7726 16.0778 16.0852 15.7652C16.3978 15.4527 16.5734 15.0287 16.5734 14.5867C16.5734 14.1447 16.3978 13.7208 16.0852 13.4082C15.7726 13.0956 15.3487 12.92 14.9067 12.92Z" fill="#4E4E4E"/>
<path d="M11.96 0C9.58658 0 7.26651 0.703803 5.29313 2.02238C3.31974 3.34096 1.78166 5.21508 0.873406 7.4078C-0.0348454 9.60051 -0.272478 12.0133 0.190545 14.3411C0.653568 16.6688 1.79645 18.807 3.47468 20.4853C5.15291 22.1635 7.29112 23.3064 9.61889 23.7694C11.9467 24.2324 14.3594 23.9948 16.5522 23.0865C18.7449 22.1783 20.619 20.6402 21.9376 18.6668C23.2562 16.6934 23.96 14.3734 23.96 12C23.96 8.8174 22.6957 5.76517 20.4452 3.51473C18.1948 1.26429 15.1426 0 11.96 0ZM14.8666 18.2533H7.58662C7.32248 18.2499 7.07013 18.1434 6.88333 17.9566C6.69654 17.7698 6.59008 17.5175 6.58662 17.2533V6.58667C6.58662 6.32145 6.69197 6.06709 6.87951 5.87956C7.06705 5.69202 7.32141 5.58667 7.58662 5.58667H13.2933C13.9507 5.58328 14.5969 5.75736 15.1637 6.09058C15.7305 6.42379 16.1968 6.9038 16.5135 7.47994C16.8303 8.05608 16.9857 8.70701 16.9633 9.3641C16.941 10.0212 16.7418 10.66 16.3866 11.2133C17.0419 11.5018 17.5997 11.9738 17.9925 12.5725C18.3852 13.1711 18.5963 13.8707 18.6 14.5867C18.6 15.0704 18.5042 15.5494 18.3183 15.996C18.1324 16.4426 17.8599 16.8481 17.5166 17.1889C17.1733 17.5297 16.7659 17.7992 16.318 17.9819C15.87 18.1646 15.3904 18.2569 14.9066 18.2533H14.8666Z" fill="#4E4E4E"/>
</g>
<defs>
<clipPath id="clip0_15:2035">
<rect width="24" height="24" fill="white"/>
</clipPath>
</defs>
</svg>
