<svg width="22" height="24" viewBox="0 0 22 24" fill="none" xmlns="http://www.w3.org/2000/svg">
<path d="M12.6 12.7273H13.8V14.7782L15.752 15.8036L15.152 16.7491L12.6 15.4109V12.7273ZM15.8 9.09091H4.6V17.0909H8.336C7.992 16.4291 7.8 15.6873 7.8 14.9091C7.8 13.5589 8.39 12.264 9.4402 11.3093C10.4904 10.3545 11.9148 9.81818 13.4 9.81818C14.256 9.81818 15.072 9.99273 15.8 10.3055V9.09091ZM4.6 18.5455C4.17565 18.5455 3.76869 18.3922 3.46863 18.1194C3.16857 17.8466 3 17.4767 3 17.0909V6.90909C3 6.10182 3.712 5.45455 4.6 5.45455H5.4V4H7V5.45455H13.4V4H15V5.45455H15.8C16.2243 5.45455 16.6313 5.60779 16.9314 5.88057C17.2314 6.15335 17.4 6.52332 17.4 6.90909V11.3455C18.392 12.2618 19 13.52 19 14.9091C19 16.2593 18.41 17.5542 17.3598 18.5089C16.3096 19.4636 14.8852 20 13.4 20C11.872 20 10.488 19.4473 9.48 18.5455H4.6ZM13.4 11.3818C12.371 11.3818 11.3841 11.7534 10.6564 12.4149C9.92878 13.0764 9.52 13.9736 9.52 14.9091C9.52 16.8582 11.256 18.4364 13.4 18.4364C13.9095 18.4364 14.4141 18.3451 14.8848 18.1679C15.3556 17.9906 15.7833 17.7308 16.1436 17.4032C16.5039 17.0757 16.7897 16.6869 16.9847 16.2589C17.1796 15.831 17.28 15.3723 17.28 14.9091C17.28 12.96 15.544 11.3818 13.4 11.3818Z" fill="#4E4E4E"/>
</svg>
