<svg width="24" height="24" viewBox="0 0 24 24" fill="none" xmlns="http://www.w3.org/2000/svg">
<path d="M12.15 16C13.8621 16 15.25 14.6121 15.25 12.9C15.25 11.188 13.8621 9.80005 12.15 9.80005C10.438 9.80005 9.05005 11.188 9.05005 12.9C9.05005 14.6121 10.438 16 12.15 16Z" fill="#4E4E4E"/>
<path d="M20.65 7H16.15L15.3 4.44C15.2546 4.31169 15.1707 4.20053 15.0597 4.12177C14.9487 4.043 14.8161 4.00047 14.68 4H9.68C9.5439 4.00047 9.41128 4.043 9.30029 4.12177C9.18929 4.20053 9.10537 4.31169 9.06001 4.44L8.15 7H3.65C3.47761 7 3.31228 7.06847 3.19038 7.19037C3.06849 7.31227 3 7.4776 3 7.64999V18.65C3 18.7354 3.01681 18.8199 3.04948 18.8987C3.08214 18.9776 3.13003 19.0493 3.19038 19.1096C3.25074 19.17 3.3224 19.2179 3.40126 19.2505C3.48012 19.2832 3.56464 19.3 3.65 19.3H20.65C20.8224 19.3 20.9877 19.2315 21.1096 19.1096C21.2315 18.9877 21.3 18.8224 21.3 18.65V7.64999C21.3 7.4776 21.2315 7.31227 21.1096 7.19037C20.9877 7.06847 20.8224 7 20.65 7ZM12.15 17.3C11.2798 17.3 10.4291 17.042 9.70549 16.5585C8.98191 16.075 8.41796 15.3878 8.08493 14.5838C7.7519 13.7798 7.66477 12.8951 7.83455 12.0416C8.00432 11.1881 8.42338 10.4041 9.03873 9.78873C9.65409 9.17338 10.4381 8.75431 11.2916 8.58453C12.1451 8.41476 13.0298 8.5019 13.8338 8.83493C14.6378 9.16796 15.325 9.7319 15.8085 10.4555C16.2919 11.1791 16.55 12.0298 16.55 12.9C16.55 14.0669 16.0864 15.1861 15.2613 16.0113C14.4361 16.8364 13.317 17.3 12.15 17.3Z" fill="#4E4E4E"/>
</svg>
