<svg width="18" height="18" viewBox="0 0 18 18" fill="none" xmlns="http://www.w3.org/2000/svg">
<path d="M9 2.25C7.66497 2.25 6.35994 2.64589 5.2499 3.38759C4.13987 4.12929 3.2747 5.18348 2.76381 6.41689C2.25292 7.65029 2.11925 9.00748 2.3797 10.3168C2.64015 11.6262 3.28303 12.829 4.22703 13.773C5.17104 14.717 6.37378 15.3598 7.68315 15.6203C8.99252 15.8807 10.3497 15.7471 11.5831 15.2362C12.8165 14.7253 13.8707 13.8601 14.6124 12.7501C15.3541 11.6401 15.75 10.335 15.75 9C15.75 7.20979 15.0388 5.49291 13.773 4.22704C12.5071 2.96117 10.7902 2.25 9 2.25ZM11.865 11.07C11.9703 11.1755 12.0295 11.3184 12.0295 11.4675C12.0295 11.6166 11.9703 11.7595 11.865 11.865C11.7595 11.9703 11.6166 12.0295 11.4675 12.0295C11.3184 12.0295 11.1755 11.9703 11.07 11.865L9 9.795L6.92999 11.865C6.87831 11.9179 6.81646 11.9598 6.74814 11.9882C6.67982 12.0165 6.60646 12.0308 6.53249 12.03C6.45858 12.0304 6.38537 12.0159 6.31711 11.9876C6.24885 11.9593 6.18692 11.9176 6.13499 11.865C6.02965 11.7595 5.97049 11.6166 5.97049 11.4675C5.97049 11.3184 6.02965 11.1755 6.13499 11.07L8.205 9L6.13499 6.92999C6.03563 6.82336 5.98154 6.68234 5.98411 6.53661C5.98668 6.39089 6.04573 6.25183 6.14879 6.14877C6.25185 6.04571 6.39088 5.98669 6.53661 5.98412C6.68234 5.98154 6.82336 6.03563 6.92999 6.13499L9 8.205L11.07 6.13499C11.1766 6.03563 11.3177 5.98154 11.4634 5.98412C11.6091 5.98669 11.7482 6.04571 11.8512 6.14877C11.9543 6.25183 12.0133 6.39089 12.0159 6.53661C12.0185 6.68234 11.9644 6.82336 11.865 6.92999L9.79499 9L11.865 11.07Z" fill="#E1E1E1"/>
</svg>
