<svg width="22" height="24" viewBox="0 0 22 24" fill="none" xmlns="http://www.w3.org/2000/svg">
<g filter="url(#filter0_d_329_19502)">
<path d="M11 15.75C14.7279 15.75 17.75 12.7279 17.75 9C17.75 5.27208 14.7279 2.25 11 2.25C7.27208 2.25 4.25 5.27208 4.25 9C4.25 12.7279 7.27208 15.75 11 15.75Z" fill="#4E4E4E"/>
<path d="M13.6246 12.1125C13.5606 12.1126 13.4971 12.1 13.438 12.0756C13.3788 12.0511 13.325 12.0152 13.2796 11.97L8.02963 6.71999C7.93813 6.62849 7.88672 6.50439 7.88672 6.37499C7.88672 6.24559 7.93813 6.1215 8.02963 6.03C8.12113 5.9385 8.24523 5.88708 8.37463 5.88708C8.50403 5.88708 8.62812 5.9385 8.71962 6.03L13.9696 11.28C14.0159 11.3248 14.0527 11.3784 14.0778 11.4376C14.1029 11.4969 14.1159 11.5606 14.1159 11.625C14.1159 11.6894 14.1029 11.7531 14.0778 11.8124C14.0527 11.8716 14.0159 11.9252 13.9696 11.97C13.9251 12.0163 13.8714 12.0529 13.8121 12.0774C13.7527 12.1019 13.6889 12.1139 13.6246 12.1125Z" fill="white"/>
<path d="M8.37469 12.1125C8.31065 12.1126 8.24722 12.1 8.18802 12.0756C8.12882 12.0511 8.07503 12.0152 8.0297 11.97C7.9399 11.8776 7.88965 11.7538 7.88965 11.625C7.88965 11.4962 7.9399 11.3724 8.0297 11.28L13.2797 6.03001C13.3721 5.94021 13.4959 5.88995 13.6247 5.88995C13.7535 5.88995 13.8773 5.94021 13.9697 6.03001C14.016 6.07477 14.0528 6.12837 14.0779 6.18764C14.103 6.24691 14.116 6.31062 14.116 6.375C14.116 6.43938 14.103 6.50309 14.0779 6.56236C14.0528 6.62163 14.016 6.67523 13.9697 6.71999L8.71969 11.97C8.67515 12.0163 8.62151 12.0529 8.56213 12.0774C8.50275 12.1019 8.43893 12.1139 8.37469 12.1125Z" fill="white"/>
</g>
<defs>
<filter id="filter0_d_329_19502" x="-2" y="0" width="26" height="26" filterUnits="userSpaceOnUse" color-interpolation-filters="sRGB">
<feFlood flood-opacity="0" result="BackgroundImageFix"/>
<feColorMatrix in="SourceAlpha" type="matrix" values="0 0 0 0 0 0 0 0 0 0 0 0 0 0 0 0 0 0 127 0" result="hardAlpha"/>
<feOffset dy="4"/>
<feGaussianBlur stdDeviation="2"/>
<feComposite in2="hardAlpha" operator="out"/>
<feColorMatrix type="matrix" values="0 0 0 0 0 0 0 0 0 0 0 0 0 0 0 0 0 0 0.1 0"/>
<feBlend mode="normal" in2="BackgroundImageFix" result="effect1_dropShadow_329_19502"/>
<feBlend mode="normal" in="SourceGraphic" in2="effect1_dropShadow_329_19502" result="shape"/>
</filter>
</defs>
</svg>
