<svg width="32" height="32" viewBox="0 0 32 32" fill="none" xmlns="http://www.w3.org/2000/svg">
<path d="M22.1204 20.8933L17.0804 15.8533L22.1204 10.8133C22.2831 10.6507 22.3744 10.43 22.3744 10.2C22.3744 9.96994 22.2831 9.74933 22.1204 9.58666C21.9577 9.42399 21.7371 9.33261 21.5071 9.33261C21.277 9.33261 21.0564 9.42399 20.8937 9.58666L15.8537 14.6267L10.8137 9.58666C10.6511 9.42399 10.4304 9.33261 10.2004 9.33261C9.97035 9.33261 9.74974 9.42399 9.58708 9.58666C9.42441 9.74933 9.33301 9.96994 9.33301 10.2C9.33301 10.43 9.42441 10.6507 9.58708 10.8133L14.6271 15.8533L9.65373 20.8933C9.49106 21.056 9.39966 21.2766 9.39966 21.5067C9.39966 21.7367 9.49106 21.9573 9.65373 22.12C9.81639 22.2826 10.037 22.374 10.267 22.374C10.4971 22.374 10.7177 22.2826 10.8804 22.12L15.9204 17.08L20.9604 22.12C21.041 22.2005 21.1365 22.2644 21.2418 22.308C21.347 22.3516 21.4598 22.374 21.5737 22.374C21.6876 22.374 21.8004 22.3516 21.9057 22.308C22.0109 22.2644 22.1065 22.2005 22.1871 22.12C22.2676 22.0394 22.3315 21.9438 22.3751 21.8386C22.4187 21.7334 22.4411 21.6206 22.4411 21.5067C22.4411 21.3928 22.4187 21.2799 22.3751 21.1747C22.3315 21.0695 22.2676 20.9739 22.1871 20.8933H22.1204Z" fill="white"/>
</svg>
