<svg width="14" height="12" viewBox="0 0 14 12" fill="none" xmlns="http://www.w3.org/2000/svg">
<path d="M5.72224 11.4659C5.40919 11.4624 5.10133 11.3855 4.82343 11.2413C4.54553 11.0972 4.30538 10.8898 4.12226 10.6359L0.87226 6.08588C0.822341 6.01718 0.786589 5.93924 0.767096 5.85658C0.747603 5.77393 0.744743 5.68823 0.758704 5.60446C0.772665 5.5207 0.803149 5.44055 0.848395 5.36868C0.893641 5.29682 0.952753 5.23468 1.02225 5.18588C1.09175 5.1357 1.1705 5.09976 1.25394 5.08014C1.33739 5.06051 1.42388 5.05759 1.50846 5.07153C1.59304 5.08548 1.67401 5.11601 1.74674 5.16138C1.81947 5.20675 1.88254 5.26605 1.93226 5.33588L5.17225 9.87589C5.23556 9.96791 5.32087 10.0426 5.42042 10.0933C5.51997 10.1439 5.6306 10.1689 5.74225 10.1659C5.8546 10.1622 5.96433 10.1311 6.06193 10.0753C6.15952 10.0196 6.24204 9.94081 6.30225 9.84589L12.0223 0.895875C12.0643 0.816371 12.1225 0.746476 12.193 0.690598C12.2635 0.63472 12.3448 0.594084 12.4318 0.571259C12.5188 0.548435 12.6096 0.543919 12.6985 0.557999C12.7873 0.57208 12.8723 0.604452 12.9479 0.653062C13.0236 0.701671 13.0884 0.765457 13.1382 0.840394C13.188 0.915331 13.2216 0.999789 13.2371 1.08841C13.2525 1.17703 13.2494 1.26789 13.2279 1.35524C13.2064 1.44259 13.167 1.52454 13.1123 1.59589L7.39225 10.5959C7.21714 10.8692 6.97814 11.0957 6.6959 11.256C6.41366 11.4163 6.09667 11.5055 5.77225 11.5159L5.72224 11.4659Z" fill="#6951FF"/>
</svg>
