<svg width="24" height="24" viewBox="0 0 24 24" fill="none" xmlns="http://www.w3.org/2000/svg">
<path d="M20 5H4C3.73478 5 3.48044 5.10536 3.29291 5.29289C3.10537 5.48043 3 5.73478 3 6V16C3 16.2652 3.10537 16.5196 3.29291 16.7071C3.48044 16.8946 3.73478 17 4 17H12.54L13.9 19.41C13.9872 19.5639 14.1137 19.6919 14.2665 19.781C14.4194 19.87 14.5931 19.9169 14.77 19.9169C14.9469 19.9169 15.1206 19.87 15.2735 19.781C15.4263 19.6919 15.5528 19.5639 15.64 19.41L17 17H20C20.2652 17 20.5196 16.8946 20.7071 16.7071C20.8946 16.5196 21 16.2652 21 16V6C21 5.73478 20.8946 5.48043 20.7071 5.29289C20.5196 5.10536 20.2652 5 20 5ZM19.7 15.7H17C16.7699 15.6992 16.5438 15.76 16.3451 15.8761C16.1464 15.9921 15.9824 16.1592 15.87 16.36L14.77 18.3L13.67 16.36C13.5568 16.1599 13.3926 15.9934 13.1941 15.8774C12.9956 15.7615 12.7699 15.7003 12.54 15.7H4.29999V6.3H19.7V15.7Z" fill="#4E4E4E"/>
<path d="M8 12C8.55228 12 9 11.5523 9 11C9 10.4477 8.55228 10 8 10C7.44772 10 7 10.4477 7 11C7 11.5523 7.44772 12 8 12Z" fill="#4E4E4E"/>
<path d="M12 12C12.5523 12 13 11.5523 13 11C13 10.4477 12.5523 10 12 10C11.4477 10 11 10.4477 11 11C11 11.5523 11.4477 12 12 12Z" fill="#4E4E4E"/>
<path d="M16 12C16.5523 12 17 11.5523 17 11C17 10.4477 16.5523 10 16 10C15.4477 10 15 10.4477 15 11C15 11.5523 15.4477 12 16 12Z" fill="#4E4E4E"/>
</svg>
