<svg width="15" height="16" viewBox="0 0 15 16" fill="none" xmlns="http://www.w3.org/2000/svg">
<path d="M5.6 12.8C5.81217 12.8 6.01566 12.7157 6.16568 12.5657C6.31571 12.4157 6.4 12.2122 6.4 12V7.2C6.4 6.98783 6.31571 6.78434 6.16568 6.63431C6.01566 6.48429 5.81217 6.4 5.6 6.4C5.38783 6.4 5.18434 6.48429 5.03431 6.63431C4.88428 6.78434 4.8 6.98783 4.8 7.2V12C4.8 12.2122 4.88428 12.4157 5.03431 12.5657C5.18434 12.7157 5.38783 12.8 5.6 12.8ZM13.6 3.2H10.4V2.4C10.4 1.76348 10.1471 1.15303 9.69706 0.702944C9.24697 0.252857 8.63652 0 8 0H6.4C5.76348 0 5.15303 0.252857 4.70294 0.702944C4.25286 1.15303 4 1.76348 4 2.4V3.2H0.8C0.587827 3.2 0.384344 3.28429 0.234315 3.43431C0.0842854 3.58434 0 3.78783 0 4C0 4.21217 0.0842854 4.41566 0.234315 4.56569C0.384344 4.71571 0.587827 4.8 0.8 4.8H1.6V13.6C1.6 14.2365 1.85286 14.847 2.30294 15.2971C2.75303 15.7471 3.36348 16 4 16H10.4C11.0365 16 11.647 15.7471 12.0971 15.2971C12.5471 14.847 12.8 14.2365 12.8 13.6V4.8H13.6C13.8122 4.8 14.0157 4.71571 14.1657 4.56569C14.3157 4.41566 14.4 4.21217 14.4 4C14.4 3.78783 14.3157 3.58434 14.1657 3.43431C14.0157 3.28429 13.8122 3.2 13.6 3.2ZM5.6 2.4C5.6 2.18783 5.68429 1.98434 5.83431 1.83431C5.98434 1.68429 6.18783 1.6 6.4 1.6H8C8.21217 1.6 8.41566 1.68429 8.56569 1.83431C8.71571 1.98434 8.8 2.18783 8.8 2.4V3.2H5.6V2.4ZM11.2 13.6C11.2 13.8122 11.1157 14.0157 10.9657 14.1657C10.8157 14.3157 10.6122 14.4 10.4 14.4H4C3.78783 14.4 3.58434 14.3157 3.43431 14.1657C3.28429 14.0157 3.2 13.8122 3.2 13.6V4.8H11.2V13.6ZM8.8 12.8C9.01217 12.8 9.21566 12.7157 9.36568 12.5657C9.51571 12.4157 9.6 12.2122 9.6 12V7.2C9.6 6.98783 9.51571 6.78434 9.36568 6.63431C9.21566 6.48429 9.01217 6.4 8.8 6.4C8.58783 6.4 8.38434 6.48429 8.23431 6.63431C8.08428 6.78434 8 6.98783 8 7.2V12C8 12.2122 8.08428 12.4157 8.23431 12.5657C8.38434 12.7157 8.58783 12.8 8.8 12.8Z" fill="#4E4E4E"/>
</svg>
