<svg width="24" height="24" viewBox="0 0 24 24" fill="none" xmlns="http://www.w3.org/2000/svg">
<path d="M4.46327 8.18723C4.46204 8.27278 4.47826 8.35768 4.51093 8.43677C4.54359 8.51585 4.59203 8.58746 4.65327 8.64722L11.7233 15.7172C11.8465 15.837 12.0115 15.9039 12.1833 15.9039C12.3551 15.9039 12.5201 15.837 12.6433 15.7172L19.7133 8.64722C19.8353 8.52522 19.9038 8.35976 19.9038 8.18723C19.9038 8.01469 19.8353 7.8492 19.7133 7.7272C19.5913 7.6052 19.4258 7.53668 19.2533 7.53668C19.0807 7.53668 18.9153 7.6052 18.7933 7.7272L12.1833 14.3372L5.57327 7.7272C5.45008 7.60747 5.28506 7.5405 5.11327 7.5405C4.94148 7.5405 4.77646 7.60747 4.65327 7.7272C4.59203 7.78696 4.54359 7.85857 4.51093 7.93765C4.47826 8.01674 4.46204 8.10167 4.46327 8.18723Z" fill="#4E4E4E"/>
</svg>
