<svg width="24" height="24" viewBox="0 0 24 24" fill="none" xmlns="http://www.w3.org/2000/svg">
<path d="M19.6008 9.82869L12.6193 4.21777C12.4386 4.07673 12.215 4 11.9846 4C11.7543 4 11.5307 4.07673 11.35 4.21777L4.36852 9.82869C4.25429 9.92265 4.16214 10.0401 4.0985 10.1727C4.03486 10.3054 4.00125 10.4502 4 10.597V19.989C4 20.2572 4.10785 20.5143 4.29983 20.7039C4.4918 20.8935 4.75218 21 5.02367 21H18.9763C19.2478 21 19.5082 20.8935 19.7002 20.7039C19.8921 20.5143 20 20.2572 20 19.989V10.597C19.995 10.4478 19.9567 10.3015 19.8876 10.1687C19.8186 10.0358 19.7206 9.91969 19.6008 9.82869Z" fill="#4E4E4E"/>
</svg>
