<svg width="24" height="24" viewBox="0 0 24 24" fill="none" xmlns="http://www.w3.org/2000/svg">
<path d="M11.9949 5.40761L18.6573 10.7638V19.6941H5.33248V10.7739L11.9949 5.41774V5.40761ZM11.9949 4.01035C11.7637 4.01168 11.5397 4.09018 11.3594 4.23311L4.36899 9.85252C4.25592 9.94552 4.16443 10.0615 4.10076 10.1925C4.03709 10.3235 4.00272 10.4666 4 10.6119V20.0181C4 20.2866 4.10799 20.5442 4.30021 20.734C4.49243 20.9239 4.75314 21.0306 5.02498 21.0306H18.9955C19.2674 21.0306 19.5281 20.9239 19.7203 20.734C19.9125 20.5442 20.0205 20.2866 20.0205 20.0181V10.5815C20.0178 10.4362 19.9834 10.2932 19.9197 10.1621C19.8561 10.0311 19.7646 9.91514 19.6515 9.82214L12.6611 4.20273C12.4808 4.0598 12.2568 3.98131 12.0256 3.97998L11.9949 4.01035Z" fill="#4E4E4E"/>
</svg>
