<svg width="24" height="24" viewBox="0 0 24 24" fill="none" xmlns="http://www.w3.org/2000/svg">
<path d="M19.5099 5.52195C18.7309 4.87669 17.7514 4.52308 16.7399 4.52195C16.1075 4.52248 15.4815 4.64825 14.8979 4.89197C14.3143 5.13569 13.7848 5.49254 13.3399 5.94196L12.0799 7.23197L10.6699 5.82197C10.2254 5.3764 9.69247 5.02901 9.10539 4.80225C8.51831 4.57549 7.89019 4.4744 7.26161 4.5055C6.63303 4.5366 6.01797 4.69919 5.45614 4.98279C4.89432 5.2664 4.39822 5.66469 3.9999 6.15195C3.30172 7.05454 2.96062 8.18277 3.04179 9.32099C3.12296 10.4592 3.62071 11.5276 4.43991 12.322L5.71991 13.602L11.3699 19.252C11.4629 19.3457 11.5735 19.4201 11.6953 19.4709C11.8172 19.5216 11.9479 19.5478 12.0799 19.5478C12.2119 19.5478 12.3426 19.5216 12.4645 19.4709C12.5863 19.4201 12.6969 19.3457 12.7899 19.252L18.4399 13.602L19.8599 12.182C20.3027 11.7363 20.6472 11.2028 20.8713 10.6159C21.0954 10.0291 21.1942 9.40175 21.1612 8.77439C21.1282 8.14703 20.9643 7.53352 20.6799 6.97336C20.3955 6.4132 19.9969 5.91878 19.5099 5.52195Z" fill="#4E4E4E"/>
</svg>
