<svg width="24" height="24" viewBox="0 0 24 24" fill="none" xmlns="http://www.w3.org/2000/svg">
<path d="M19.51 5.5216C18.7336 4.87186 17.7524 4.51764 16.74 4.5216C15.4649 4.52441 14.2428 5.03126 13.34 5.9316L12.08 7.23161L10.67 5.8216C10.2254 5.37687 9.69277 5.03 9.10623 4.80329C8.5197 4.57658 7.89223 4.47505 7.26413 4.50518C6.63603 4.53532 6.02117 4.69646 5.45903 4.97828C4.89689 5.2601 4.3999 5.65634 3.99996 6.1416C3.30109 7.04577 2.95964 8.17566 3.0408 9.31556C3.12196 10.4555 3.62004 11.5256 4.43996 12.3216L5.71996 13.5916L11.37 19.2516C11.4629 19.3453 11.5735 19.4197 11.6954 19.4705C11.8172 19.5213 11.948 19.5474 12.08 19.5474C12.212 19.5474 12.3427 19.5213 12.4645 19.4705C12.5864 19.4197 12.697 19.3453 12.79 19.2516L18.44 13.5916L19.86 12.1816C20.3027 11.7359 20.6472 11.2024 20.8714 10.6156C21.0955 10.0287 21.1942 9.40137 21.1613 8.77401C21.1283 8.14665 20.9643 7.53316 20.6799 6.973C20.3955 6.41284 19.997 5.91843 19.51 5.5216ZM18.92 11.2616L17.51 12.6716L12.08 18.1216L6.63996 12.6716L5.35996 11.4016C4.76644 10.8358 4.40252 10.071 4.33794 9.25352C4.27335 8.43608 4.51264 7.62355 5.00996 6.9716C5.29371 6.62656 5.64634 6.34456 6.04531 6.14361C6.44428 5.94266 6.88081 5.82719 7.32695 5.80461C7.7731 5.78202 8.21905 5.85279 8.63628 6.01241C9.0535 6.17204 9.43282 6.417 9.74996 6.73161L11.16 8.15161C11.4065 8.3917 11.7359 8.52775 12.08 8.5316C12.2508 8.5318 12.4199 8.49835 12.5778 8.43315C12.7356 8.36794 12.8791 8.27227 13 8.15161L14.28 6.87161C14.9429 6.22503 15.8339 5.86574 16.76 5.87161C17.4665 5.86272 18.1536 6.10353 18.7 6.5516C19.0463 6.83445 19.3296 7.18674 19.5314 7.58578C19.7332 7.98482 19.8492 8.42173 19.8718 8.86834C19.8944 9.31495 19.8232 9.76134 19.6627 10.1787C19.5022 10.5961 19.256 10.9752 18.94 11.2916L18.92 11.2616Z" fill="#4E4E4E"/>
</svg>
