<svg width="24" height="24" viewBox="0 0 24 24" fill="none" xmlns="http://www.w3.org/2000/svg">
<path d="M18.03 16.31L16.42 14.74L17.79 13.42C17.9513 13.2666 18.0797 13.082 18.1674 12.8775C18.2551 12.6729 18.3002 12.4526 18.3 12.23V4.64999C18.3 4.21239 18.1261 3.7927 17.8167 3.48326C17.5073 3.17383 17.0876 3 16.65 3H6.64999C6.21239 3 5.79271 3.17383 5.48328 3.48326C5.17384 3.7927 5 4.21239 5 4.64999V12.18C5.01905 12.4542 5.09254 12.7219 5.21616 12.9674C5.33977 13.2129 5.51105 13.4314 5.72 13.61L7.10001 14.96L5.44998 16.53C5.30597 16.6646 5.19091 16.8271 5.11182 17.0076C5.03273 17.1881 4.99128 17.3829 4.98999 17.58C4.99166 17.7785 5.03325 17.9746 5.11227 18.1567C5.1913 18.3388 5.30614 18.5032 5.44998 18.64L7.89999 20.97C8.18602 21.2413 8.56574 21.3918 8.95999 21.39C9.35463 21.3939 9.73512 21.2431 10.02 20.97L11.66 19.41L13.24 20.95C13.5343 21.2329 13.9267 21.391 14.335 21.391C14.7433 21.391 15.1357 21.2329 15.43 20.95L17.99 18.45C18.1366 18.309 18.2529 18.1396 18.332 17.9523C18.4111 17.7649 18.4512 17.5634 18.45 17.36C18.4534 16.9684 18.3025 16.5912 18.03 16.31ZM9.16998 20.07C9.12436 20.1101 9.06573 20.1322 9.005 20.1322C8.94428 20.1322 8.88562 20.1101 8.84 20.07L6.37 17.74C6.35137 17.726 6.33625 17.7079 6.32584 17.6871C6.31542 17.6662 6.31 17.6433 6.31 17.62C6.31077 17.5983 6.31658 17.577 6.327 17.5579C6.33741 17.5388 6.35214 17.5224 6.37 17.51L8.07001 15.93L10.77 18.57L9.16998 20.07ZM17.12 17.56L14.56 20.06C14.5099 20.1071 14.4438 20.1333 14.375 20.1333C14.3062 20.1333 14.2401 20.1071 14.19 20.06L12.19 18.06L8.81 14.77L6.75 12.77C6.7219 12.7318 6.68818 12.6981 6.64999 12.67C6.49172 12.5469 6.37909 12.3744 6.32999 12.18V4.64999C6.32999 4.55717 6.36686 4.46815 6.4325 4.40251C6.49813 4.33687 6.58717 4.29999 6.67999 4.29999H16.68C16.726 4.29999 16.7715 4.30904 16.8139 4.32663C16.8564 4.34422 16.895 4.37001 16.9275 4.40251C16.96 4.43501 16.9858 4.47359 17.0034 4.51605C17.0209 4.55852 17.03 4.60403 17.03 4.64999V12.23C17.0276 12.3245 16.9881 12.4143 16.92 12.48L15.07 14.27C15.0068 14.3298 14.9564 14.4019 14.9219 14.4818C14.8875 14.5618 14.8698 14.6479 14.8698 14.735C14.8698 14.822 14.8875 14.9082 14.9219 14.9881C14.9564 15.0681 15.0068 15.1402 15.07 15.2L17.15 17.2C17.1725 17.2201 17.1903 17.2448 17.2024 17.2724C17.2145 17.3 17.2205 17.3299 17.22 17.36C17.2227 17.3992 17.2149 17.4385 17.1973 17.4736C17.1797 17.5088 17.153 17.5386 17.12 17.56Z" fill="#4E4E4E"/>
<path d="M13.73 6.60999L12.54 7.55C12.4045 7.65816 12.317 7.8153 12.2964 7.98745C12.2758 8.1596 12.3238 8.33293 12.43 8.46999C12.4915 8.54571 12.5693 8.60661 12.6576 8.64816C12.7459 8.6897 12.8424 8.71084 12.94 8.71C13.0891 8.71415 13.2346 8.66445 13.35 8.57L14.53 7.63C14.6131 7.58438 14.6853 7.52113 14.7414 7.44468C14.7975 7.36823 14.8361 7.28042 14.8547 7.18743C14.8733 7.09444 14.8713 6.99853 14.8488 6.90639C14.8264 6.81426 14.7841 6.72815 14.7249 6.65411C14.6656 6.58006 14.5909 6.51987 14.506 6.47776C14.421 6.43565 14.3278 6.41264 14.233 6.41035C14.1382 6.40805 14.0441 6.42653 13.9572 6.46447C13.8703 6.50241 13.7927 6.55891 13.73 6.63V6.60999Z" fill="#4E4E4E"/>
<path d="M9.91 9.64998L8.76999 10.55C8.63515 10.6563 8.54789 10.8118 8.52728 10.9823C8.50667 11.1528 8.55439 11.3245 8.66 11.46C8.72104 11.537 8.79849 11.5994 8.88672 11.6426C8.97495 11.6859 9.07172 11.7089 9.16998 11.71C9.31802 11.7078 9.46156 11.6588 9.57999 11.57L10.71 10.66C10.8426 10.5539 10.9276 10.3995 10.9464 10.2307C10.9651 10.0619 10.9161 9.89258 10.81 9.75998C10.7039 9.62737 10.5495 9.54233 10.3807 9.52357C10.2119 9.50482 10.0426 9.55388 9.91 9.65997V9.64998Z" fill="#4E4E4E"/>
<path d="M9.58001 6.60997C9.51667 6.54169 9.43939 6.48782 9.35342 6.45201C9.26744 6.4162 9.17477 6.39928 9.08169 6.4024C8.9886 6.40553 8.89728 6.42861 8.8139 6.47011C8.73051 6.5116 8.657 6.57054 8.59838 6.64291C8.53976 6.71529 8.49739 6.7994 8.47411 6.88959C8.45084 6.97977 8.44722 7.07391 8.46349 7.16562C8.47977 7.25732 8.51556 7.34446 8.56844 7.42113C8.62133 7.49779 8.69006 7.56219 8.77001 7.60997L9.95 8.54997C10.0662 8.64288 10.2112 8.69239 10.36 8.68997C10.4576 8.69081 10.5541 8.66967 10.6424 8.62813C10.7307 8.58658 10.8085 8.5257 10.87 8.44998C10.9762 8.31292 11.0242 8.13959 11.0036 7.96744C10.983 7.79529 10.8955 7.63815 10.76 7.52998L9.58001 6.60997Z" fill="#4E4E4E"/>
<path d="M13.37 9.65002C13.3066 9.58174 13.2293 9.52786 13.1434 9.49205C13.0574 9.45624 12.9647 9.43932 12.8716 9.44244C12.7785 9.44557 12.6872 9.46865 12.6038 9.51015C12.5205 9.55164 12.447 9.61058 12.3883 9.68295C12.3297 9.75533 12.2873 9.83946 12.264 9.92964C12.2408 10.0198 12.2371 10.114 12.2534 10.2057C12.2697 10.2974 12.3055 10.3845 12.3584 10.4612C12.4113 10.5378 12.48 10.6022 12.56 10.65L13.6999 11.56C13.8139 11.6501 13.9547 11.6994 14.1 11.7C14.1982 11.6989 14.295 11.6759 14.3832 11.6327C14.4715 11.5894 14.5489 11.527 14.6099 11.45C14.6635 11.3835 14.7033 11.3069 14.7268 11.2248C14.7503 11.1426 14.7571 11.0566 14.7468 10.9718C14.7366 10.887 14.7095 10.8051 14.6671 10.731C14.6247 10.6568 14.5679 10.5919 14.5 10.54L13.37 9.65002Z" fill="#4E4E4E"/>
</svg>
