<svg width="36" height="36" viewBox="0 0 36 36" fill="none" xmlns="http://www.w3.org/2000/svg">
<path d="M0 5C0 2.23858 2.23858 0 5 0H31C33.7614 0 36 2.23858 36 5V31C36 33.7614 33.7614 36 31 36H5C2.23858 36 0 33.7614 0 31V5Z" fill="#4E4E4E"/>
<path d="M16.4342 17.7497H12.0003L10.5176 11.8511C10.5081 11.8168 10.5023 11.7816 10.5003 11.7461C10.4838 11.2053 11.0793 10.8304 11.5953 11.0779L25.5 17.7497L11.5953 24.4216C11.0853 24.6668 10.4973 24.3023 10.5003 23.7713C10.5019 23.7239 10.5102 23.6769 10.5251 23.6318L11.6253 19.9997" stroke="#F2F2F2" stroke-linecap="round" stroke-linejoin="round"/>
</svg>
