<svg width="24" height="24" viewBox="0 0 24 24" fill="none" xmlns="http://www.w3.org/2000/svg">
<path d="M17.9701 14V10C17.9701 8.40871 17.338 6.88258 16.2128 5.75736C15.0875 4.63214 13.5614 4 11.9701 4C10.3788 4 8.85269 4.63214 7.72747 5.75736C6.60225 6.88258 5.97011 8.40871 5.97011 10V14C5.3999 14.0199 4.86094 14.2655 4.4718 14.6828C4.08266 15.1 3.87522 15.6548 3.89511 16.225C3.915 16.7952 4.16059 17.3342 4.57786 17.7233C4.99513 18.1125 5.5499 18.3199 6.12011 18.3H8.88011C9.03121 19.0047 9.4194 19.6363 9.97992 20.0894C10.5404 20.5425 11.2394 20.7896 11.9601 20.7896C12.6808 20.7896 13.3798 20.5425 13.9403 20.0894C14.5008 19.6363 14.889 19.0047 15.0401 18.3H17.8201C18.3903 18.3199 18.9451 18.1125 19.3624 17.7233C19.7796 17.3342 20.0252 16.7952 20.0451 16.225C20.065 15.6548 19.8576 15.1 19.4684 14.6828C19.0793 14.2655 18.5403 14.0199 17.9701 14ZM11.9701 19.5C11.5939 19.4996 11.2268 19.3845 10.9178 19.1701C10.6087 18.9557 10.3723 18.6522 10.2401 18.3H13.6901C13.561 18.6482 13.3295 18.9492 13.026 19.1634C12.7226 19.3776 12.3615 19.4949 11.9901 19.5H11.9701ZM17.8001 17H6.15011C5.92468 17 5.70848 16.9105 5.54907 16.751C5.38966 16.5916 5.30011 16.3754 5.30011 16.15C5.30011 15.9246 5.38966 15.7084 5.54907 15.549C5.70848 15.3896 5.92468 15.3 6.15011 15.3H7.30011V9.98C7.35581 8.77491 7.87372 7.63762 8.74623 6.8045C9.61874 5.97138 10.7787 5.50651 11.9851 5.50651C13.1915 5.50651 14.3515 5.97138 15.224 6.8045C16.0965 7.63762 16.6144 8.77491 16.6701 9.98V15.3H17.8201C18.0455 15.3 18.2617 15.3896 18.4212 15.549C18.5806 15.7084 18.6701 15.9246 18.6701 16.15C18.6701 16.3754 18.5806 16.5916 18.4212 16.751C18.2617 16.9105 18.0455 17 17.8201 17H17.8001Z" fill="#4E4E4E"/>
</svg>
