<svg width="24" height="24" viewBox="0 0 24 24" fill="none" xmlns="http://www.w3.org/2000/svg">
<path d="M17.29 10C19.223 10 20.79 8.433 20.79 6.5C20.79 4.567 19.223 3 17.29 3C15.357 3 13.79 4.567 13.79 6.5C13.79 8.433 15.357 10 17.29 10Z" fill="#F37462"/>
<path d="M17.97 14.23V11.43C17.7485 11.4687 17.5246 11.4921 17.3 11.5C17.08 11.5 16.88 11.5 16.67 11.44V15.52H17.82C18.0454 15.52 18.2616 15.6096 18.421 15.769C18.5804 15.9284 18.67 16.1446 18.67 16.37C18.67 16.5955 18.5804 16.8117 18.421 16.9711C18.2616 17.1305 18.0454 17.22 17.82 17.22H6.14997C5.92453 17.22 5.70833 17.1305 5.54892 16.9711C5.38952 16.8117 5.29996 16.5955 5.29996 16.37C5.29996 16.1446 5.38952 15.9284 5.54892 15.769C5.70833 15.6096 5.92453 15.52 6.14997 15.52H7.29996V10.2C7.30261 8.95789 7.7979 7.76753 8.67716 6.89014C9.55642 6.01276 10.7478 5.52001 11.99 5.52001C12.13 5.52001 12.26 5.52001 12.39 5.52001C12.482 5.07831 12.6334 4.65111 12.84 4.25002C11.9902 4.11803 11.1219 4.17242 10.2953 4.40945C9.46864 4.64647 8.70346 5.06045 8.05277 5.62267C7.40207 6.1849 6.88143 6.88192 6.52696 7.66541C6.1725 8.4489 5.99267 9.3001 5.99996 10.16V14.16C5.45393 14.2112 4.94813 14.4692 4.58603 14.8811C4.22394 15.293 4.03293 15.8277 4.0521 16.3757C4.07126 16.9238 4.29914 17.4439 4.68912 17.8295C5.0791 18.2151 5.6017 18.4371 6.14997 18.45H8.90996C9.06106 19.1547 9.44925 19.7863 10.0098 20.2394C10.5703 20.6925 11.2692 20.9396 11.99 20.9396C12.7107 20.9396 13.4096 20.6925 13.9702 20.2394C14.5307 19.7863 14.9189 19.1547 15.07 18.45H17.82C18.3682 18.4371 18.8908 18.2151 19.2808 17.8295C19.6708 17.4439 19.8987 16.9238 19.9178 16.3757C19.937 15.8277 19.746 15.293 19.3839 14.8811C19.0218 14.4692 18.516 14.2112 17.97 14.16V14.23ZM11.97 19.72C11.5941 19.7182 11.2276 19.6026 10.9188 19.3884C10.61 19.1741 10.3733 18.8714 10.24 18.52H13.69C13.5608 18.8682 13.3293 19.1692 13.0259 19.3834C12.7225 19.5976 12.3613 19.7149 11.99 19.72H11.97Z" fill="#4E4E4E"/>
</svg>
