<svg width="24" height="24" viewBox="0 0 24 24" fill="none" xmlns="http://www.w3.org/2000/svg">
<path d="M13.91 19.4H10.06C9.93668 19.3994 9.81573 19.4338 9.71126 19.4994C9.60679 19.5649 9.52311 19.6587 9.46999 19.77C9.41924 19.882 9.40078 20.0059 9.41668 20.1279C9.43258 20.2498 9.48221 20.3648 9.55999 20.46C9.85557 20.8166 10.2261 21.1035 10.6453 21.3005C11.0644 21.4975 11.5219 21.5996 11.985 21.5996C12.4481 21.5996 12.9055 21.4975 13.3247 21.3005C13.7438 21.1035 14.1144 20.8166 14.41 20.46C14.49 20.366 14.541 20.2508 14.557 20.1283C14.5729 20.0059 14.5531 19.8815 14.5 19.77C14.4469 19.6587 14.3632 19.5649 14.2587 19.4994C14.1542 19.4338 14.0333 19.3994 13.91 19.4Z" fill="#4E4E4E"/>
<path d="M17.2 10C19.1329 10 20.7 8.433 20.7 6.5C20.7 4.567 19.1329 3 17.2 3C15.267 3 13.7 4.567 13.7 6.5C13.7 8.433 15.267 10 17.2 10Z" fill="#F37462"/>
<path d="M17.97 14.81V11.43C17.715 11.4691 17.4578 11.4925 17.2 11.5C15.8739 11.5 14.6021 10.9732 13.6644 10.0355C12.7267 9.09783 12.2 7.82607 12.2 6.49999C12.2042 5.92942 12.3092 5.36407 12.51 4.82998C12.3368 4.82002 12.1632 4.82002 11.99 4.82998C10.3987 4.82998 8.87253 5.46213 7.74732 6.58735C6.6221 7.71257 5.98996 9.23868 5.98996 10.83V14.83C5.44394 14.8812 4.93812 15.1392 4.57602 15.551C4.21393 15.9629 4.02292 16.4976 4.04209 17.0457C4.06125 17.5938 4.28915 18.1138 4.67912 18.4994C5.0691 18.885 5.59169 19.107 6.13996 19.12H17.81C18.3582 19.107 18.8808 18.885 19.2708 18.4994C19.6608 18.1138 19.8887 17.5938 19.9078 17.0457C19.927 16.4976 19.736 15.9629 19.3739 15.551C19.0118 15.1392 18.506 14.8812 17.96 14.83L17.97 14.81Z" fill="#4E4E4E"/>
</svg>
