<svg width="18" height="15" viewBox="0 0 18 15" fill="none" xmlns="http://www.w3.org/2000/svg">
<path fill-rule="evenodd" clip-rule="evenodd" d="M12.0392 5.97276C13.5069 5.97276 14.6968 4.78292 14.6968 3.31517C14.6968 1.84743 13.5069 0.657593 12.0392 0.657593C10.5714 0.657593 9.3816 1.84743 9.3816 3.31517C9.3816 4.78292 10.5714 5.97276 12.0392 5.97276ZM8.53914 5.50636C8.53914 6.97411 7.3493 8.16394 5.88156 8.16394C4.41382 8.16394 3.22397 6.97411 3.22397 5.50636C3.22397 4.03862 4.41382 2.84878 5.88156 2.84878C7.3493 2.84878 8.53914 4.03862 8.53914 5.50636ZM11.0033 11.8859C11.1251 12.2408 11.2104 12.6098 11.2565 12.9875C11.2725 13.1245 11.2594 13.2633 11.2182 13.3949C11.177 13.5266 11.1086 13.6481 11.0173 13.7515C10.9277 13.8536 10.8174 13.9355 10.6936 13.9916C10.5699 14.0477 10.4356 14.0769 10.2998 14.0771H1.46333C1.32747 14.0769 1.19321 14.0477 1.06948 13.9916C0.94576 13.9355 0.835412 13.8536 0.745781 13.7515C0.654555 13.6481 0.586107 13.5266 0.544899 13.3949C0.503692 13.2633 0.490648 13.1245 0.506599 12.9875C0.666781 11.6747 1.30187 10.4659 2.29205 9.58919C3.28223 8.71248 4.55903 8.22847 5.88156 8.22847C6.4395 8.22847 6.98931 8.31462 7.51289 8.48005C7.77392 8.0825 8.08813 7.71811 8.44968 7.398C9.43986 6.52129 10.7167 6.03728 12.0392 6.03728C13.3617 6.03728 14.6385 6.52129 15.6287 7.398C16.6189 8.2747 17.254 9.48348 17.4141 10.7963C17.4301 10.9333 17.417 11.0721 17.3758 11.2037C17.3346 11.3354 17.2662 11.4569 17.175 11.5603C17.0853 11.6624 16.975 11.7443 16.8513 11.8004C16.7275 11.8565 16.5933 11.8857 16.4574 11.8859H11.0033Z" fill="#4E4E4E"/>
</svg>
