<svg width="24" height="24" viewBox="0 0 24 24" fill="none" xmlns="http://www.w3.org/2000/svg">
<path d="M19.65 3.96002H3.65002C3.47844 3.9626 3.31458 4.03192 3.19324 4.15326C3.07189 4.2746 3.00258 4.43843 3 4.61002V18.61C3.00258 18.7816 3.07189 18.9454 3.19324 19.0668C3.31458 19.1881 3.47844 19.2574 3.65002 19.26H19.65C19.8233 19.26 19.9897 19.1919 20.1132 19.0703C20.2367 18.9486 20.3074 18.7833 20.31 18.61V4.61002C20.3074 4.43671 20.2367 4.2714 20.1132 4.14978C19.9897 4.02816 19.8233 3.96 19.65 3.96002ZM8.52002 7.48001C8.81669 7.48001 9.10669 7.568 9.35336 7.73282C9.60004 7.89764 9.79229 8.13192 9.90582 8.40601C10.0194 8.6801 10.0491 8.98167 9.99118 9.27264C9.9333 9.56362 9.79044 9.8309 9.58066 10.0407C9.37088 10.2505 9.10362 10.3933 8.81265 10.4512C8.52168 10.5091 8.22007 10.4794 7.94598 10.3658C7.67189 10.2523 7.43762 10.0601 7.2728 9.81339C7.10797 9.56671 7.02002 9.27668 7.02002 8.98001C7.03045 8.58916 7.19305 8.21784 7.47324 7.94513C7.75342 7.67242 8.12903 7.51988 8.52002 7.52002V7.48001ZM18.38 17.61H5.26001C5.15692 17.6074 5.05665 17.5758 4.97064 17.5189C4.88464 17.462 4.81637 17.3821 4.77362 17.2882C4.73087 17.1944 4.71534 17.0904 4.72885 16.9882C4.74236 16.8859 4.78435 16.7895 4.85001 16.71L7.69 13.43C7.79214 13.3181 7.91648 13.2288 8.05508 13.1676C8.19369 13.1065 8.34354 13.0749 8.49503 13.0749C8.64652 13.0749 8.79633 13.1065 8.93494 13.1676C9.07354 13.2288 9.19788 13.3181 9.30002 13.43L10.73 14.96L13 12.33C13.1021 12.2181 13.2265 12.1288 13.3651 12.0676C13.5037 12.0065 13.6535 11.9749 13.805 11.9749C13.9565 11.9749 14.1063 12.0065 14.2449 12.0676C14.3835 12.1288 14.5079 12.2181 14.61 12.33L18.78 16.78C18.8404 16.8581 18.8784 16.9512 18.8896 17.0493C18.9008 17.1473 18.885 17.2466 18.8437 17.3363C18.8025 17.426 18.7375 17.5026 18.6557 17.5579C18.5739 17.6132 18.4786 17.6451 18.38 17.65V17.61Z" fill="#4E4E4E"/>
</svg>
