<svg width="24" height="24" viewBox="0 0 24 24" fill="none" xmlns="http://www.w3.org/2000/svg">
<path d="M17.65 11H12.3V5.64999C12.3 5.4776 12.2315 5.31227 12.1096 5.19037C11.9877 5.06847 11.8224 5 11.65 5C11.4776 5 11.3123 5.06847 11.1904 5.19037C11.0685 5.31227 11 5.4776 11 5.64999V11H5.64999C5.4776 11 5.31228 11.0685 5.19038 11.1904C5.06849 11.3123 5 11.4776 5 11.65C5 11.8224 5.06849 11.9877 5.19038 12.1096C5.31228 12.2315 5.4776 12.3 5.64999 12.3H11V17.65C11 17.8224 11.0685 17.9877 11.1904 18.1096C11.3123 18.2315 11.4776 18.3 11.65 18.3C11.8224 18.3 11.9877 18.2315 12.1096 18.1096C12.2315 17.9877 12.3 17.8224 12.3 17.65V12.3H17.65C17.8224 12.3 17.9877 12.2315 18.1096 12.1096C18.2315 11.9877 18.3 11.8224 18.3 11.65C18.3 11.4776 18.2315 11.3123 18.1096 11.1904C17.9877 11.0685 17.8224 11 17.65 11Z" fill="#4E4E4E"/>
</svg>
