<svg width="24" height="24" viewBox="0 0 24 24" fill="none" xmlns="http://www.w3.org/2000/svg">
<path d="M12.1001 5.3C12.6341 5.3 13.1561 5.45836 13.6001 5.75504C14.0442 6.05172 14.3902 6.47339 14.5946 6.96675C14.7989 7.46011 14.8524 8.003 14.7482 8.52675C14.644 9.0505 14.3869 9.53159 14.0093 9.90919C13.6317 10.2868 13.1506 10.5439 12.6268 10.6481C12.1031 10.7523 11.5602 10.6988 11.0668 10.4945C10.5735 10.2901 10.1518 9.94406 9.85513 9.50005C9.55845 9.05603 9.4001 8.53401 9.4001 8C9.4001 7.28392 9.68455 6.59716 10.1909 6.09081C10.6973 5.58446 11.384 5.3 12.1001 5.3ZM12.1001 4C11.309 4 10.5356 4.23459 9.87782 4.67412C9.22003 5.11364 8.70734 5.73836 8.40459 6.46927C8.10184 7.20017 8.02262 8.00444 8.17696 8.78036C8.3313 9.55629 8.71226 10.269 9.27167 10.8284C9.83108 11.3878 10.5438 11.7688 11.3197 11.9231C12.0957 12.0775 12.8999 11.9983 13.6308 11.6955C14.3617 11.3928 14.9865 10.8801 15.426 10.2223C15.8655 9.56448 16.1001 8.79113 16.1001 8C16.1001 6.93913 15.6787 5.92172 14.9285 5.17157C14.1784 4.42142 13.161 4 12.1001 4Z" fill="#4E4E4E"/>
<path d="M18.7501 20.9H5.45013C5.24564 20.8997 5.04356 20.8558 4.85734 20.7713C4.67112 20.6868 4.50503 20.5637 4.37012 20.41C4.23173 20.255 4.12802 20.0722 4.06594 19.8739C4.00386 19.6755 3.98483 19.4662 4.01012 19.26C4.25122 17.2841 5.20711 15.4647 6.69746 14.1452C8.1878 12.8256 10.1096 12.0971 12.1001 12.0971C14.0907 12.0971 16.0124 12.8256 17.5028 14.1452C18.9931 15.4647 19.949 17.2841 20.1901 19.26C20.2154 19.4662 20.1964 19.6755 20.1343 19.8739C20.0722 20.0722 19.9685 20.255 19.8301 20.41C19.6952 20.5637 19.5291 20.6868 19.3429 20.7713C19.1567 20.8558 18.9546 20.8997 18.7501 20.9ZM12.1001 13.4C10.4301 13.3993 8.81732 14.0087 7.56507 15.1136C6.31282 16.2185 5.50735 17.7429 5.30012 19.4C5.29102 19.4204 5.28632 19.4426 5.28632 19.465C5.28632 19.4874 5.29102 19.5095 5.30012 19.53C5.33563 19.543 5.3746 19.543 5.41012 19.53H18.7101C18.7456 19.543 18.7846 19.543 18.8201 19.53C18.8292 19.5095 18.8339 19.4874 18.8339 19.465C18.8339 19.4426 18.8292 19.4204 18.8201 19.4C18.6147 17.7564 17.8207 16.243 16.5852 15.1399C15.3497 14.0367 13.7563 13.4186 12.1001 13.4Z" fill="#4E4E4E"/>
</svg>
