<svg width="24" height="24" viewBox="0 0 24 24" fill="none" xmlns="http://www.w3.org/2000/svg">
<path d="M12 24C18.6274 24 24 18.6274 24 12C24 5.37258 18.6274 0 12 0C5.37258 0 0 5.37258 0 12C0 18.6274 5.37258 24 12 24Z" fill="#F9F8FF"/>
<path d="M12 11.32C14.0545 11.32 15.72 9.6545 15.72 7.6C15.72 5.54551 14.0545 3.88 12 3.88C9.94553 3.88 8.28003 5.54551 8.28003 7.6C8.28003 9.6545 9.94553 11.32 12 11.32Z" fill="#E5E1FF"/>
<path fill-rule="evenodd" clip-rule="evenodd" d="M5.80999 19C5.70383 18.9979 5.59928 18.9737 5.50308 18.9287C5.40687 18.8838 5.32113 18.8192 5.25141 18.7392C5.18169 18.6591 5.12954 18.5653 5.09829 18.4638C5.06704 18.3623 5.05741 18.2554 5.07 18.15C5.30776 16.4814 6.13957 14.9546 7.41264 13.8501C8.68571 12.7456 10.3146 12.1375 12 12.1375C13.6854 12.1375 15.3143 12.7456 16.5874 13.8501C17.8604 14.9546 18.6922 16.4814 18.93 18.15C18.9426 18.2554 18.9329 18.3623 18.9017 18.4638C18.8704 18.5653 18.8183 18.6591 18.7486 18.7392C18.6789 18.8192 18.5931 18.8838 18.4969 18.9287C18.4007 18.9737 18.2962 18.9979 18.19 19H5.80999Z" fill="#E5E1FF"/>
</svg>
