<svg width="24" height="24" viewBox="0 0 24 24" fill="none" xmlns="http://www.w3.org/2000/svg">
<path d="M9.10355 7.39645L11.6464 4.85355C11.8417 4.65829 12.1583 4.65829 12.3536 4.85355L14.8964 7.39645C15.0917 7.59171 15.0917 7.90829 14.8964 8.10355L12.3536 10.6464C12.1583 10.8417 11.8417 10.8417 11.6464 10.6464L9.10355 8.10355C8.90829 7.90829 8.90829 7.59171 9.10355 7.39645Z" stroke="#A0A0A0"/>
<path d="M9.10355 15.8964L11.6464 13.3536C11.8417 13.1583 12.1583 13.1583 12.3536 13.3536L14.8964 15.8964C15.0917 16.0917 15.0917 16.4083 14.8964 16.6036L12.3536 19.1464C12.1583 19.3417 11.8417 19.3417 11.6464 19.1464L9.10355 16.6036C8.90829 16.4083 8.90829 16.0917 9.10355 15.8964Z" stroke="#A0A0A0"/>
<path d="M4.85355 11.6464L7.39645 9.10355C7.59171 8.90829 7.90829 8.90829 8.10355 9.10355L10.6464 11.6464C10.8417 11.8417 10.8417 12.1583 10.6464 12.3536L8.10355 14.8964C7.90829 15.0917 7.59171 15.0917 7.39645 14.8964L4.85355 12.3536C4.65829 12.1583 4.65829 11.8417 4.85355 11.6464Z" stroke="#A0A0A0"/>
<path d="M13.3536 11.6464L15.8964 9.10355C16.0917 8.90829 16.4083 8.90829 16.6036 9.10355L19.1464 11.6464C19.3417 11.8417 19.3417 12.1583 19.1464 12.3536L16.6036 14.8964C16.4083 15.0917 16.0917 15.0917 15.8964 14.8964L13.3536 12.3536C13.1583 12.1583 13.1583 11.8417 13.3536 11.6464Z" stroke="#A0A0A0"/>
</svg>
