<svg width="24" height="24" viewBox="0 0 24 24" fill="none" xmlns="http://www.w3.org/2000/svg">
<path d="M8.65048 19.4405C8.73604 19.4418 8.82094 19.4255 8.90002 19.3929C8.97911 19.3602 9.05072 19.3118 9.11047 19.2505L16.1805 12.1805C16.3002 12.0574 16.3672 11.8923 16.3672 11.7205C16.3672 11.5487 16.3002 11.3837 16.1805 11.2605L9.11047 4.19054C8.98847 4.06854 8.82302 4 8.65048 4C8.47795 4 8.31246 4.06854 8.19046 4.19054C8.06846 4.31254 7.99994 4.478 7.99994 4.65054C7.99994 4.82307 8.06846 4.98854 8.19046 5.11053L14.8005 11.7205L8.19046 18.3305C8.07073 18.4537 8.00375 18.6188 8.00375 18.7905C8.00375 18.9623 8.07073 19.1273 8.19046 19.2505C8.25021 19.3118 8.32182 19.3602 8.40091 19.3929C8.48 19.4255 8.56492 19.4418 8.65048 19.4405Z" fill="#4E4E4E"/>
</svg>
