<svg width="24" height="24" viewBox="0 0 24 24" fill="none" xmlns="http://www.w3.org/2000/svg">
<path d="M16.65 4H6.64999C6.21239 4 5.79271 4.17384 5.48328 4.48328C5.17384 4.79271 5 5.21239 5 5.64999V18.58C5.00215 18.7981 5.06574 19.0112 5.1835 19.1948C5.30126 19.3784 5.4684 19.5251 5.66574 19.618C5.86308 19.7109 6.08262 19.7463 6.29916 19.7202C6.51571 19.694 6.72048 19.6073 6.88998 19.47L11.65 15.47L16.41 19.47C16.621 19.6364 16.8813 19.7279 17.15 19.73C17.3197 19.732 17.4874 19.6943 17.64 19.62C17.8327 19.5319 17.9967 19.3915 18.1134 19.2147C18.2301 19.0378 18.2948 18.8318 18.3 18.62V5.64999C18.3 5.21239 18.1261 4.79271 17.8167 4.48328C17.5073 4.17384 17.0876 4 16.65 4Z" fill="#4E4E4E"/>
</svg>
