<svg width="24" height="24" viewBox="0 0 24 24" fill="none" xmlns="http://www.w3.org/2000/svg">
<path d="M6.15 19.73C5.98033 19.732 5.81255 19.6943 5.66 19.62C5.46731 19.5319 5.30325 19.3915 5.18655 19.2147C5.06985 19.0379 5.00521 18.8318 5 18.62V5.64999C5 5.21239 5.17384 4.7927 5.48328 4.48326C5.79271 4.17383 6.21239 4 6.65 4H16.65C16.8667 4 17.0812 4.04267 17.2814 4.1256C17.4816 4.20852 17.6635 4.33004 17.8167 4.48326C17.97 4.63648 18.0915 4.81838 18.1744 5.01857C18.2573 5.21876 18.3 5.43331 18.3 5.64999V18.58C18.2978 18.7981 18.2342 19.0112 18.1165 19.1948C17.9987 19.3784 17.8316 19.5251 17.6343 19.618C17.4369 19.7109 17.2174 19.7463 17.0008 19.7202C16.7843 19.694 16.5795 19.6073 16.41 19.47L11.65 15.47L6.89 19.47C6.6798 19.6378 6.41896 19.7294 6.15 19.73ZM6.65 5.29999C6.55718 5.29999 6.46815 5.33687 6.40251 5.40251C6.33687 5.46815 6.3 5.55717 6.3 5.64999V18.26L11.65 13.8L17 18.26V5.64999C17 5.55717 16.9631 5.46815 16.8975 5.40251C16.8318 5.33687 16.7428 5.29999 16.65 5.29999H6.65Z" fill="#4E4E4E"/>
</svg>
