<svg width="24" height="24" viewBox="0 0 24 24" fill="none" xmlns="http://www.w3.org/2000/svg">
<path d="M19.46 18.57L15.59 14.7C16.4837 13.3487 16.8243 11.7057 16.5415 10.1105C16.2587 8.51523 15.3741 7.0895 14.0703 6.12773C12.7666 5.16596 11.1432 4.74161 9.5356 4.94232C7.92796 5.14303 6.45879 5.95346 5.4315 7.20625C4.40421 8.45904 3.89726 10.0585 4.01536 11.6743C4.13346 13.2901 4.86757 14.7989 6.06609 15.889C7.26462 16.9791 8.83602 17.5673 10.4558 17.5321C12.0755 17.497 13.6199 16.8411 14.77 15.7L18.54 19.5C18.6003 19.5605 18.672 19.6084 18.751 19.6412C18.8299 19.6739 18.9145 19.6908 19 19.6908C19.0854 19.6908 19.17 19.6739 19.2489 19.6412C19.3279 19.6084 19.3996 19.5605 19.46 19.5C19.5827 19.3764 19.6516 19.2092 19.6516 19.035C19.6516 18.8608 19.5827 18.6936 19.46 18.57ZM10.29 16.28C9.30105 16.28 8.33435 15.9867 7.5121 15.4373C6.68986 14.8879 6.04899 14.107 5.67056 13.1934C5.29212 12.2798 5.1931 11.2744 5.38603 10.3045C5.57895 9.33464 6.05516 8.44372 6.75442 7.74446C7.45368 7.0452 8.3446 6.56899 9.3145 6.37607C10.2844 6.18314 11.2897 6.28215 12.2034 6.66059C13.117 7.03903 13.8979 7.6799 14.4473 8.50214C14.9967 9.32439 15.29 10.2911 15.29 11.28C15.29 12.6061 14.7632 13.8778 13.8255 14.8155C12.8878 15.7532 11.616 16.28 10.29 16.28Z" fill="#4E4E4E"/>
</svg>
