<svg width="24" height="24" viewBox="0 0 24 24" fill="none" xmlns="http://www.w3.org/2000/svg">
<path d="M4.65 7.18001H7.15C7.27429 7.4261 7.46441 7.63288 7.69922 7.77735C7.93403 7.92181 8.20431 7.99831 8.48 7.99831C8.75569 7.99831 9.02598 7.92181 9.26079 7.77735C9.4956 7.63288 9.68572 7.4261 9.81001 7.18001H19.65C19.8224 7.18001 19.9877 7.11154 20.1096 6.98964C20.2315 6.86774 20.3 6.70241 20.3 6.53002C20.3 6.35763 20.2315 6.19229 20.1096 6.07039C19.9877 5.94849 19.8224 5.88002 19.65 5.88002H9.81001C9.69338 5.61703 9.50262 5.39372 9.26109 5.23743C9.01955 5.08114 8.73769 4.99864 8.45 5.00002C8.16286 5.00114 7.88208 5.08466 7.641 5.24065C7.39992 5.39664 7.20869 5.61855 7.09 5.88002H4.65C4.47761 5.88002 4.31228 5.94849 4.19038 6.07039C4.06849 6.19229 4 6.35763 4 6.53002C4 6.70241 4.06849 6.86774 4.19038 6.98964C4.31228 7.11154 4.47761 7.18001 4.65 7.18001Z" fill="#4E4E4E"/>
<path d="M19.65 11.88H17.81C17.6934 11.617 17.5026 11.3937 17.2611 11.2374C17.0195 11.0811 16.7377 10.9986 16.45 11C16.1629 11.0011 15.8821 11.0847 15.641 11.2406C15.3999 11.3966 15.2087 11.6186 15.09 11.88H4.65C4.47761 11.88 4.31228 11.9485 4.19038 12.0704C4.06849 12.1923 4 12.3576 4 12.53C4 12.7024 4.06849 12.8677 4.19038 12.9896C4.31228 13.1115 4.47761 13.18 4.65 13.18H15.15C15.2743 13.4261 15.4644 13.6329 15.6992 13.7773C15.934 13.9218 16.2043 13.9983 16.48 13.9983C16.7557 13.9983 17.026 13.9218 17.2608 13.7773C17.4956 13.6329 17.6857 13.4261 17.81 13.18H19.65C19.8224 13.18 19.9877 13.1115 20.1096 12.9896C20.2315 12.8677 20.3 12.7024 20.3 12.53C20.3 12.3576 20.2315 12.1923 20.1096 12.0704C19.9877 11.9485 19.8224 11.88 19.65 11.88Z" fill="#4E4E4E"/>
<path d="M19.65 17.88H13.51C13.3925 17.6175 13.2016 17.3946 12.9603 17.2383C12.719 17.0819 12.4376 16.9987 12.15 16.9987C11.8624 16.9987 11.581 17.0819 11.3397 17.2383C11.0984 17.3946 10.9075 17.6175 10.79 17.88H4.65C4.47761 17.88 4.31228 17.9484 4.19038 18.0703C4.06849 18.1922 4 18.3576 4 18.53C4 18.7024 4.06849 18.8677 4.19038 18.9896C4.31228 19.1115 4.47761 19.18 4.65 19.18H10.82C10.9443 19.426 11.1344 19.6328 11.3692 19.7773C11.604 19.9218 11.8743 19.9983 12.15 19.9983C12.4257 19.9983 12.696 19.9218 12.9308 19.7773C13.1656 19.6328 13.3557 19.426 13.48 19.18H19.65C19.8224 19.18 19.9877 19.1115 20.1096 18.9896C20.2315 18.8677 20.3 18.7024 20.3 18.53C20.3 18.3576 20.2315 18.1922 20.1096 18.0703C19.9877 17.9484 19.8224 17.88 19.65 17.88Z" fill="#4E4E4E"/>
</svg>
