<svg width="24" height="24" viewBox="0 0 24 24" fill="none" xmlns="http://www.w3.org/2000/svg">
<path d="M6.8646 18.3509C6.7866 18.7949 7.22459 19.1419 7.61059 18.9439L12.0005 16.6879L16.3894 18.9439C16.7754 19.1419 17.2134 18.7949 17.1354 18.3519L16.3054 13.622L19.8274 10.266C20.1574 9.95203 19.9874 9.37805 19.5454 9.31605L14.6475 8.62006L12.4635 4.29314C12.4219 4.20543 12.3563 4.13132 12.2742 4.07943C12.1922 4.02754 12.0971 4 12 4C11.9029 4 11.8078 4.02754 11.7258 4.07943C11.6438 4.13132 11.5781 4.20543 11.5365 4.29314L9.35256 8.62106L4.45465 9.31705C4.01365 9.37905 3.84266 9.95303 4.17165 10.267L7.69459 13.623L6.8646 18.3529V18.3509ZM11.7695 15.5839L8.08358 17.4779L8.77757 13.521C8.79382 13.4299 8.78746 13.3362 8.75904 13.2481C8.73062 13.1601 8.68101 13.0804 8.61457 13.016L5.70862 10.246L9.76055 9.67004C9.84445 9.65737 9.92403 9.62455 9.99248 9.57439C10.0609 9.52424 10.1162 9.45824 10.1535 9.38205L11.9985 5.72411L13.8455 9.38205C13.8828 9.45824 13.9381 9.52424 14.0065 9.57439C14.075 9.62455 14.1546 9.65737 14.2385 9.67004L18.2904 10.245L15.3844 13.015C15.3178 13.0795 15.2681 13.1594 15.2397 13.2476C15.2113 13.3358 15.205 13.4297 15.2214 13.521L15.9154 17.4779L12.2295 15.5839C12.1582 15.5472 12.0792 15.528 11.999 15.528C11.9188 15.528 11.8398 15.5472 11.7685 15.5839H11.7695Z" fill="#4E4E4E"/>
</svg>
