<svg width="24" height="24" viewBox="0 0 24 24" fill="none" xmlns="http://www.w3.org/2000/svg">
<path d="M15.97 5.35002L18.29 7.67002L7.88996 18.07L5.33998 18.31L5.56997 15.75L15.97 5.35002ZM15.97 4.01003C15.6579 4.01235 15.3595 4.13819 15.14 4.36002L4.61997 14.87C4.42084 15.0633 4.2998 15.3232 4.27996 15.6L3.99996 18.6C3.99175 18.7284 4.00999 18.8571 4.05354 18.9782C4.09709 19.0993 4.16502 19.2101 4.25314 19.3038C4.34126 19.3976 4.44768 19.4722 4.56582 19.5232C4.68396 19.5741 4.81131 19.6003 4.93997 19.6H5.02996L8.02996 19.32C8.30728 19.3021 8.56778 19.1807 8.75997 18.98L19.28 8.47002C19.3897 8.36043 19.4768 8.23028 19.5362 8.087C19.5956 7.94372 19.6262 7.79013 19.6262 7.63503C19.6262 7.47992 19.5956 7.32634 19.5362 7.18306C19.4768 7.03978 19.3897 6.90962 19.28 6.80003L16.78 4.31002C16.5605 4.08819 16.262 3.96234 15.95 3.96002L15.97 4.01003Z" fill="#4E4E4E"/>
</svg>
